<?xml version="1.0" standalone="no"?>
<!DOCTYPE svg PUBLIC "-//W3C//DTD SVG 20010904//EN"
 "http://www.w3.org/TR/2001/REC-SVG-20010904/DTD/svg10.dtd">
<svg version="1.0" xmlns="http://www.w3.org/2000/svg"
 width="655.000000pt" height="453.000000pt" viewBox="0 0 655.000000 453.000000"
 preserveAspectRatio="xMidYMid meet">

<g transform="translate(0.000000,453.000000) scale(0.100000,-0.100000)"
fill="#000000" stroke="none">
<path d="M10 2265 l0 -2255 3265 0 3265 0 0 2255 0 2255 -3265 0 -3265 0 0
-2255z m3092 439 c128 -16 322 -59 421 -93 160 -55 367 -160 518 -263 48 -32
91 -58 95 -58 5 0 21 27 36 60 l26 60 45 0 45 0 40 -92 c118 -269 154 -354
155 -368 1 -10 -9 -16 -35 -18 -34 -3 -42 2 -110 74 -269 281 -636 497 -1013
594 -211 54 -299 65 -545 65 -141 0 -255 -5 -305 -13 -118 -20 -273 -59 -372
-93 -73 -26 -183 -53 -133 -33 8 3 29 12 45 19 160 71 361 128 545 154 169 25
376 26 542 5z m-1149 -201 c-7 -2 -19 -2 -25 0 -7 3 -2 5 12 5 14 0 19 -2 13
-5z m17 -308 l0 -255 -24 -6 c-14 -3 -33 -4 -43 -2 -17 3 -18 20 -21 240 l-2
237 37 20 c21 11 41 20 46 21 4 0 7 -115 7 -255z m-936 189 c22 -11 53 -37 69
-56 26 -32 30 -47 34 -120 7 -110 -8 -161 -61 -214 -31 -32 -54 -44 -94 -53
-56 -12 -220 -15 -246 -5 -14 5 -16 36 -16 241 l0 235 138 -4 c115 -2 143 -6
176 -24z m274 -211 c-3 -221 -4 -238 -21 -241 -10 -2 -29 -1 -43 2 l-24 6 0
229 c0 125 3 231 7 234 3 4 24 7 45 7 l38 0 -2 -237z m451 226 c27 -9 31 -16
31 -46 0 -35 -1 -35 -32 -28 -118 25 -191 12 -238 -41 -28 -32 -30 -41 -30
-108 0 -59 4 -79 23 -107 38 -58 126 -86 178 -59 16 9 19 22 19 75 l0 65 40 0
40 0 0 -100 0 -99 -37 -10 c-49 -14 -157 -14 -206 0 -21 5 -54 24 -74 42 -54
47 -73 97 -73 192 0 163 76 234 251 235 42 0 90 -5 108 -11z m619 -26 c3 -29
0 -32 -33 -39 -19 -3 -46 -4 -60 -2 -14 3 -29 0 -35 -7 -5 -6 -11 -96 -12
-201 l-3 -189 -37 -3 -38 -3 0 200 c0 222 6 205 -67 201 -57 -3 -73 7 -73 46
l0 34 178 -2 177 -3 3 -32z m358 -200 c56 -128 99 -235 96 -238 -11 -11 -71
-4 -85 10 -9 8 -21 32 -27 52 -20 60 -25 63 -106 63 -41 0 -74 4 -74 10 0 18
23 60 34 62 6 0 16 2 21 3 6 2 20 3 33 4 12 0 22 7 22 14 0 21 -55 152 -64
152 -4 0 -41 -80 -81 -179 -41 -98 -78 -183 -83 -188 -15 -15 -78 -6 -74 11 2
7 38 97 81 200 44 102 86 203 95 224 15 37 16 38 63 35 l47 -3 102 -232z m256
40 l3 -198 75 -3 c113 -3 122 -7 118 -45 l-3 -32 -135 0 -135 0 -3 238 -2 237
40 0 40 0 2 -197z m532 175 c8 -13 42 -87 76 -165 34 -77 67 -148 73 -158 11
-13 21 4 69 112 32 70 62 140 67 156 6 15 15 27 20 27 5 0 30 -12 55 -27 l46
-28 -3 -185 -2 -185 -35 0 -35 0 -5 154 c-6 172 -2 171 -65 16 -69 -171 -71
-175 -105 -175 -37 0 -43 10 -106 172 -27 70 -52 128 -56 128 -4 0 -9 -66 -10
-147 l-3 -148 -35 0 -35 0 -3 238 -2 237 40 0 c30 0 43 -5 54 -22z m1115 6
c50 -20 71 -51 71 -105 0 -49 -29 -101 -71 -126 -16 -10 -29 -23 -29 -31 0 -8
29 -52 64 -100 36 -47 63 -89 60 -94 -6 -10 -75 -10 -90 0 -24 15 -144 197
-144 217 0 17 9 25 39 34 47 14 81 52 81 91 0 47 -42 66 -126 55 l-54 -6 0
-40 c0 -46 -11 -50 -26 -11 -6 15 -21 51 -33 80 l-21 52 120 0 c86 0 131 -4
159 -16z m239 -221 l-3 -238 -37 -3 -38 -3 0 240 0 241 40 0 40 0 -2 -237z
m325 223 c-4 -7 -44 -52 -88 -100 -44 -48 -84 -94 -88 -101 -5 -10 25 -51 98
-134 58 -65 105 -122 105 -125 0 -12 -96 -6 -112 7 -8 6 -52 56 -97 110 -106
128 -106 129 0 252 45 52 86 96 93 99 6 2 30 5 54 5 34 1 41 -2 35 -13z m347
-21 l0 -35 -135 0 -135 0 0 35 0 35 135 0 135 0 0 -35z m400 0 l0 -35 -54 0
c-88 0 -88 -1 -85 -219 l4 -186 -40 0 -40 0 -3 195 c-2 140 -6 196 -15 202 -6
4 -38 8 -69 8 -57 0 -58 1 -58 28 0 16 3 32 7 35 3 4 84 7 180 7 l173 0 0 -35z
m-496 -181 c16 -42 8 -51 -51 -57 -60 -6 -110 0 -119 15 -3 5 -3 20 0 34 6 23
10 24 85 24 63 0 80 -3 85 -16z m-1294 -62 c0 -15 -75 -188 -85 -194 -14 -10
-75 -10 -75 0 0 4 16 46 36 92 20 47 42 100 50 118 l14 34 30 -22 c16 -12 30
-24 30 -28z m1396 -156 c3 -14 3 -30 -1 -35 -7 -12 -231 -16 -259 -5 -16 6
-22 45 -9 57 3 4 64 7 134 7 128 0 129 0 135 -24z m-1555 -126 c25 -14 24 -48
-3 -77 l-22 -23 22 -30 c23 -31 28 -50 12 -50 -12 0 -60 70 -60 87 0 7 9 18
20 25 11 7 20 23 20 35 0 20 -5 23 -35 23 -39 0 -39 1 -39 -92 -1 -96 -20 -91
-24 6 -2 44 -1 85 2 93 6 16 78 18 107 3z m209 -85 c0 -52 -4 -95 -9 -95 -14
0 -17 20 -15 105 3 93 1 85 14 85 6 0 10 -38 10 -95z m60 85 c0 -5 -7 -10 -16
-10 -8 0 -12 5 -9 10 3 6 10 10 16 10 5 0 9 -4 9 -10z m190 -15 c7 -19 17 -25
38 -25 40 0 52 -17 52 -71 0 -56 -15 -71 -67 -67 l-38 3 -3 93 c-3 95 1 111
18 67z m505 15 c4 -6 -10 -10 -36 -10 -57 0 -79 -21 -79 -76 0 -52 25 -74 83
-74 23 0 36 -4 32 -10 -8 -13 -71 -13 -96 0 -10 6 -26 24 -34 40 -38 73 0 140
79 140 25 0 48 -4 51 -10z m55 -15 c7 -19 17 -25 39 -25 38 0 53 -20 55 -77 1
-62 -18 -67 -24 -7 -10 90 -74 79 -68 -11 2 -30 -1 -40 -12 -40 -8 0 -15 6
-14 13 1 6 2 48 3 92 0 44 3 80 6 80 3 0 10 -11 15 -25z m790 -52 c0 -54 -3
-73 -10 -63 -17 27 -12 140 7 140 2 0 3 -35 3 -77z m-1200 -23 c0 -73 -3 -90
-15 -90 -12 0 -15 17 -15 90 0 73 3 90 15 90 12 0 15 -17 15 -90z m-460 17
c13 -24 13 -29 0 -37 -8 -5 -26 -6 -41 -3 -15 3 -30 0 -34 -6 -11 -18 15 -41
46 -41 16 0 29 -4 29 -10 0 -5 -16 -10 -35 -10 -64 0 -97 65 -59 118 23 33 73
27 94 -11z m120 -38 c0 -52 -3 -70 -12 -67 -13 5 -24 99 -14 124 14 36 26 9
26 -57z m122 54 c13 -12 18 -30 18 -69 l0 -52 -45 0 c-45 0 -75 17 -75 42 0
20 29 40 58 41 40 0 35 29 -5 33 -18 2 -33 7 -33 13 0 15 62 10 82 -8z m340 0
c34 -31 13 -72 -31 -58 -9 2 -22 0 -30 -4 -22 -14 5 -41 41 -41 17 0 27 -4 23
-10 -11 -17 -64 -11 -85 10 -39 39 -14 120 37 120 15 0 35 -7 45 -17z m511 4
c10 -6 20 -28 23 -48 9 -52 -23 -84 -74 -75 -41 6 -52 19 -52 61 0 62 57 97
103 62z m73 -113 c-3 -8 -10 -12 -16 -9 -12 7 -14 118 -2 129 9 10 26 -99 18
-120z m129 116 c-3 -5 -15 -10 -25 -10 -37 0 -50 -12 -50 -44 0 -40 15 -56 53
-56 16 0 26 -4 22 -10 -11 -18 -63 -11 -85 12 -44 48 -11 118 56 118 21 0 33
-4 29 -10z m122 -2 c6 -7 13 -23 15 -35 7 -25 -7 -33 -58 -33 -32 0 -34 -2
-24 -20 8 -14 21 -20 46 -20 21 0 33 -4 29 -10 -10 -16 -72 -12 -89 6 -18 18
-21 76 -6 105 12 22 72 27 87 7z m131 0 c-3 -7 -18 -12 -34 -13 -39 0 -39 -28
0 -35 37 -6 55 -33 40 -57 -13 -21 -71 -30 -87 -14 -8 8 -1 11 24 11 20 0 39
3 42 7 11 10 -14 33 -36 33 -11 0 -28 7 -38 16 -17 15 -17 18 -1 40 13 17 27
23 55 24 26 0 37 -4 35 -12z m112 -114 c0 -8 -5 -12 -10 -9 -6 4 -8 11 -5 16
9 14 15 11 15 -7z"/>
<path d="M4222 2275 c-7 -14 -12 -34 -11 -43 0 -19 91 -100 96 -86 4 13 -52
147 -64 151 -5 2 -15 -8 -21 -22z"/>
<path d="M823 2333 c-10 -3 -13 -46 -13 -164 l0 -159 80 0 c77 0 82 1 115 33
27 24 37 44 45 84 12 66 0 137 -30 168 -32 34 -150 57 -197 38z"/>
<path d="M4464 1766 c-14 -57 16 -95 51 -66 18 15 20 61 3 78 -20 20 -47 14
-54 -12z"/>
<path d="M4081 1776 c-8 -10 -9 -16 -1 -21 15 -9 52 5 47 18 -6 18 -32 20 -46
3z"/>
<path d="M4330 1725 c-9 -11 -10 -19 -3 -26 17 -17 48 -6 48 16 0 25 -28 31
-45 10z"/>
<path d="M4671 1776 c-10 -11 -8 -16 9 -21 24 -8 46 7 36 24 -10 15 -31 14
-45 -3z"/>
<path d="M5169 1763 c-19 -51 24 -96 59 -61 7 7 12 24 12 38 0 53 -53 70 -71
23z"/>
<path d="M5501 1776 c-9 -11 -8 -15 5 -20 25 -10 54 3 47 20 -7 18 -37 18 -52
0z"/>
</g>
</svg>
